<svg xmlns="http://www.w3.org/2000/svg" width="56" height="56" viewBox="0 0 56 56"><defs><style>.a{fill:#eaf2fc;opacity:0;}.b{fill:none;}.c{fill:#307fe2;}.d{fill:#fff;}</style></defs><circle class="a" cx="28" cy="28" r="28"/><path class="b" d="M0,0H23V23H0Z" transform="translate(16.666 16.5)"/><circle class="c" cx="28" cy="28" r="28"/><path class="d" d="M18.95,2.9h-.942V1.951a.942.942,0,1,0-1.883,0V2.9H6.708V1.951a.942.942,0,1,0-1.883,0V2.9H3.883A1.9,1.9,0,0,0,2,4.8V20.015a1.9,1.9,0,0,0,1.883,1.9H18.95a1.9,1.9,0,0,0,1.883-1.9V4.8A1.9,1.9,0,0,0,18.95,2.9Zm-.942,17.114H4.825a.949.949,0,0,1-.942-.951V7.655H18.95V19.064A.949.949,0,0,1,18.008,20.015Z" transform="translate(16.749 16.542)"/></svg>